<svg width="35" height="35" viewBox="0 0 35 35" fill="none" xmlns="http://www.w3.org/2000/svg">
<path d="M17.3855 3.47717C9.70465 3.47717 3.47717 9.70465 3.47717 17.3855C3.47717 23.9028 7.96494 29.356 14.0151 30.8651C13.9502 30.6773 13.9085 30.4594 13.9085 30.1894V27.8122C13.344 27.8122 12.3982 27.8122 12.1606 27.8122C11.2091 27.8122 10.363 27.4031 9.95268 26.6427C9.49718 25.7978 9.41837 24.5055 8.28947 23.715C7.95451 23.4519 8.2095 23.1517 8.59545 23.1923C9.30826 23.394 9.89936 23.8831 10.4557 24.6086C11.0097 25.3353 11.2705 25.4999 12.3055 25.4999C12.8074 25.4999 13.5584 25.471 14.2654 25.3597C14.6456 24.3942 15.3028 23.5052 16.106 23.0857C11.4745 22.6093 9.26421 20.3051 9.26421 17.1769C9.26421 15.8301 9.83794 14.5274 10.8127 13.4298C10.4928 12.3403 10.0906 10.1184 10.9355 9.27233C13.0195 9.27233 14.2793 10.6238 14.5818 10.9889C15.6203 10.633 16.7608 10.4314 17.9593 10.4314C19.16 10.4314 20.3051 10.633 21.346 10.9912C21.645 10.6284 22.906 9.27233 24.9946 9.27233C25.843 10.1196 25.4362 12.3507 25.1128 13.4379C26.0818 14.5332 26.652 15.8324 26.652 17.1769C26.652 20.3028 24.4452 22.6058 19.8207 23.0845C21.0933 23.7486 22.0217 25.6147 22.0217 27.0206V30.1894C22.0217 30.3099 21.995 30.3968 21.9811 30.5C27.4007 28.6003 31.2939 23.4542 31.2939 17.3855C31.2939 9.70465 25.0664 3.47717 17.3855 3.47717Z" fill="white"/>
</svg>
