<svg width="35" height="35" viewBox="0 0 35 35" fill="none" xmlns="http://www.w3.org/2000/svg">
<path d="M17.54 2.08618C9.60532 2.08618 3.08185 8.12296 2.31689 15.856L10.0996 19.8397C10.8854 19.1791 11.9072 18.7762 13.0198 18.7762H13.0551C13.3263 18.359 13.6383 17.8368 13.9652 17.2944C14.6467 16.1748 15.4117 14.909 16.1628 13.9355C16.3297 10.8269 18.91 8.34495 22.0603 8.34495C25.3218 8.34495 27.9713 10.9945 27.9713 14.256C27.9713 17.4063 25.4893 19.9866 22.3808 20.1535C21.4072 20.9045 20.1485 21.6698 19.0219 22.3443C18.4795 22.6781 17.9573 22.9899 17.54 23.2611V23.2964C17.54 25.793 15.5164 27.8167 13.0198 27.8167C10.5233 27.8167 8.4996 25.793 8.4996 23.2964C8.4996 23.1782 8.50623 23.067 8.51318 22.9487L2.43506 19.8329C3.61032 27.1209 9.92521 32.6846 17.54 32.6846C25.9894 32.6846 32.8392 25.8347 32.8392 17.3854C32.8392 8.93605 25.9894 2.08618 17.54 2.08618ZM22.0603 9.73579C19.5707 9.73579 17.54 11.7664 17.54 14.256C17.54 16.7456 19.5707 18.7762 22.0603 18.7762C24.5499 18.7762 26.5805 16.7456 26.5805 14.256C26.5805 11.7664 24.5499 9.73579 22.0603 9.73579ZM22.0603 11.1266C23.7919 11.1266 25.1896 12.5244 25.1896 14.256C25.1896 15.9876 23.7919 17.3854 22.0603 17.3854C20.3287 17.3854 18.9309 15.9876 18.9309 14.256C18.9309 12.5244 20.3287 11.1266 22.0603 11.1266ZM13.0198 20.1671C12.4704 20.1671 11.9491 20.3064 11.504 20.5637L13.813 21.7453C14.6684 22.1835 15.0021 23.2343 14.5709 24.0897C14.258 24.6877 13.6527 25.035 13.0198 25.035C12.7486 25.035 12.4839 24.9727 12.2266 24.8476L9.91081 23.6577C10.0916 25.2155 11.4134 26.4258 13.0198 26.4258C14.7514 26.4258 16.1492 25.028 16.1492 23.2964C16.1492 21.5649 14.7514 20.1671 13.0198 20.1671Z" fill="white"/>
</svg>
