<svg width="36" height="35" viewBox="0 0 36 35" fill="none" xmlns="http://www.w3.org/2000/svg">
<path d="M17.6945 1.39075C8.87516 1.39075 1.69983 8.56608 1.69983 17.3854C1.69983 26.2047 8.87516 33.38 17.6945 33.38C26.5144 33.38 33.6891 26.2047 33.6891 17.3854C33.6891 8.56608 26.5144 1.39075 17.6945 1.39075ZM24.6299 20.5391C26.1855 21.9202 26.5089 22.4133 26.5617 22.4974C27.2064 23.5197 25.8468 23.6441 25.8468 23.6441H22.9817C22.9817 23.6441 22.2842 23.6518 21.6882 23.2568C20.7167 22.6205 19.6993 21.3868 18.9845 21.601C18.3843 21.7804 18.3899 22.5913 18.3899 23.2846C18.3899 23.5329 18.1764 23.6441 17.6945 23.6441C17.2125 23.6441 17.0122 23.6441 16.7988 23.6441C15.2292 23.6441 13.5261 23.1156 11.8272 21.3402C9.42384 18.8305 7.31603 13.7748 7.31603 13.7748C7.31603 13.7748 7.19155 13.5202 7.32716 13.3652C7.48084 13.1913 7.89879 13.2136 7.89879 13.2136L10.677 13.2129C10.677 13.2129 10.9385 13.2622 11.1262 13.3944C11.2813 13.5029 11.3675 13.7101 11.3675 13.7101C11.3675 13.7101 11.8342 15.2511 12.4287 16.2338C13.5901 18.1517 14.1304 18.2004 14.5247 17.9939C15.1005 17.6948 14.9128 15.6559 14.9128 15.6559C14.9128 15.6559 14.9385 14.7803 14.6381 14.3902C14.4065 14.0884 13.9635 13.9278 13.7702 13.9027C13.6137 13.8826 13.8752 13.6086 14.2083 13.4521C14.6534 13.2539 15.2591 13.2031 16.3036 13.2129C17.1166 13.2205 17.3509 13.2692 17.668 13.3422C18.627 13.5634 18.3899 14.1468 18.3899 16.1955C18.3899 16.852 18.2995 17.7748 18.7946 18.0808C19.0081 18.2129 19.7397 18.3743 21.0415 16.2602C21.6597 15.2574 22.1514 13.594 22.1514 13.594C22.1514 13.594 22.2529 13.4111 22.4108 13.3207C22.5721 13.2282 22.5673 13.2303 22.7884 13.2303C23.0095 13.2303 25.2272 13.2129 25.714 13.2129C26.2001 13.2129 26.6563 13.2073 26.7349 13.4924C26.8476 13.902 26.3761 15.3054 25.1813 16.8283C23.2182 19.3277 23.0005 19.094 24.6299 20.5391Z" fill="white"/>
</svg>
